<?xml version="1.0" encoding="UTF-8"?>
<svg width="48" height="48" version="1.1" viewBox="0 0 12.7 12.7" xmlns="http://www.w3.org/2000/svg"><path d="m6.35 0a6.35 6.35 0 0 0-6.35 6.35 6.35 6.35 0 0 0 6.35 6.35 6.35 6.35 0 0 0 6.35-6.35 6.35 6.35 0 0 0-6.35-6.35zm0.37715 2.0204h3.3127c0.14482 1.0922 0.28966 2.1844 0.07313 2.915-0.21652 0.73058-0.79441 1.0994-1.1257 1.3602-0.33128 0.26077-0.416 0.41344-0.45835 1.0479-0.042361 0.63446-0.042341 1.7507-0.019328 2.35 0.023016 0.59934 0.069038 0.64256 0.4667 0.72249 0.39766 0.0799 1.266 0.051 1.266 0.26364h-3.7176c0-0.21267 0.86837-0.18371 1.266-0.26364 0.39766-0.0799 0.44368-0.12315 0.46669-0.72249 0.023016-0.59934 0.023032-1.7156-0.019325-2.35-0.042356-0.63445-0.12707-0.78712-0.45835-1.0479-0.33128-0.26077-0.90917-0.62963-1.1257-1.3602-0.21653-0.73058-0.071691-1.8228 0.073133-2.915zm-1.9306 5.3e-4h1.5352c-0.14337 1.0753-0.30949 2.1616-0.053349 3.0258 0.26029 0.87824 0.96056 1.3219 1.259 1.5568 0.14919 0.11744 0.1891 0.16281 0.22288 0.2375 0.018709 0.0414 0.037021 0.10773 0.053157 0.2088-0.20329 0.25821-0.40624 0.48383-0.54699 0.72486-0.31844 0.54535-0.31843 0.77857-0.28365 1.1345 0.034777 0.3559 0.10438 0.44257 0.4807 0.52663 0.11219 0.0251 0.25843 0.0399 0.40799 0.0547-0.00172 0.0659-0.00346 0.13137-0.00563 0.18794-6.614e-4 0.0176-0.00146 0.0332-0.00225 0.049h-3.2825c0-0.23873 0.75584-0.20763 1.1322-0.29169 0.37633-0.0841 0.44593-0.17073 0.4807-0.52663 0.034777-0.35589 0.034781-0.58911-0.28365-1.1345-0.31843-0.54534-0.95531-1.0109-1.194-1.9566-0.2387-0.9457-0.079234-2.3714 0.080251-3.7971zm-1.9006 8e-4h1.5061c-0.15826 1.411-0.33458 2.8269-0.065711 3.8922 0.18296 0.72488 0.56324 1.2078 0.87055 1.5799-0.00824 0.16452-2.91e-4 0.32036 0.011904 0.44531 0.037521 0.38397 0.11253 0.43831 0.51855 0.529 0.023019 5e-3 0.047513 0.01 0.072942 0.0137 0.01973 0.0917 0.01528 0.17168 0.00466 0.28013h-3.1874c0-0.29339 0.81554-0.20314 1.2216-0.29383 0.40602-0.0907 0.48103-0.14502 0.51855-0.529s0.03755-1.0584-0.3628-1.3867c-0.40034-0.3283-1.201-0.31051-1.4526-1.008-0.25156-0.69747 0.04604-2.1101 0.34366-3.5228z"/></svg>
