<svg version="1" xmlns="http://www.w3.org/2000/svg" width="933.333" height="933.333" viewBox="0 0 700.000000 700.000000"><path d="M70.5 1.3c-.3 1-4.9 23.9-6.1 30.5-.4 2.1-6.7 32.2-7.9 37.7-2.5 11.7-11.3 60.3-13 72.5-2.4 16.6-4.5 32.7-5 37.5-.4 3.3-.8 7.5-1 9.3-2.5 22.8-2.5 60.9 0 73.2.3 1.4.9 4.8 1.4 7.7 3.1 16.5 11 32 22.1 43.3 11.8 12 24.5 19.4 51.5 29.9 6.1 2.4 12.4 4.9 14.2 5.7 1.7.8 3.4 1.4 3.7 1.4 1.7 0 20.8 9.8 25.1 12.8 15 10.7 24.4 25.2 29.9 46.3 4.3 16 4.9 21.5 5 43.9.2 41.6-4.1 54.9-20.4 61.8-13.2 5.6-29.4 8.3-62.2 10.7-14.7 1-22.3 1.6-24.8 1.9-1.4.2-5 .7-8 1.1-7 .9-16.6 4.1-20.3 6.7-2.4 1.7-5.7 7.1-5.7 9.3 0 .3 58 .5 129 .5h129l.1-5.8c.2-9.1-.2-15.6-.9-16.4-.4-.4-1.9-.9-3.4-1.2-7.3-1.3-20.5-5-25.3-7.1-15-6.7-19.4-19.5-19.9-58.6l-.2-13.6-7.4-9.4c-4-5.2-7.6-9.6-8-9.9-1.2-1-15.6-21.6-20.8-29.7-16.4-25.8-32-64.3-36.6-90.4-.1-.8-.5-2.3-.8-3.4-.4-1.1-.9-4.3-1.3-7-.3-2.8-.8-5.7-1-6.5-.5-1.7-1.2-6.8-2.1-15.5-.3-3.3-.8-7.1-1-8.5-1.9-11.5-2.5-73.1-1.1-100 1-18 2.2-35.4 3.2-46.5.2-2.2.6-6.9.9-10.5.3-3.6.8-8.5 1-11 .3-2.5.8-7.6 1.1-11.4.4-3.8.8-7.9 1-9 .3-1.9 1-8 2-17.6.2-1.9.7-6.4 1-10 .3-3.6.8-7.2 1-8 .2-.8.7-4.9 1-9 .3-4.1 1.1-11.9 1.8-17.3.7-5.3 1-10.1.7-10.6-.8-1.4-121-1.2-121.5.2z"/><path d="M224.7.7c-.3.5-.8 3.7-1.1 7.3-.4 3.6-.9 8.1-1.1 10-.2 1.9-.7 6.4-1 10-.4 3.6-.8 8.3-1.1 10.5-.2 2.2-.7 5.8-.9 8-.3 2.2-.7 6-.9 8.5-.3 2.5-.7 6.5-1 9-.5 4.4-1.3 12-2.2 21-.2 2.5-.6 6.3-.9 8.5-.2 2.2-.7 8-1 13-.4 4.9-.8 10.1-1 11.5-.3 1.4-.7 7.2-1 13-.4 5.8-.8 12.1-1 14-2.6 24.9-2.5 96.1 0 118 .3 2.2.7 5.7 1 7.9 5.5 47.4 20.3 84 50.6 124.7 3.7 5.1 7.4 10 8.3 11 31.9 39.2 40 50.5 50.9 71.4 16.6 31.4 19.5 48.4 15.2 86.3-1.1 9.9-5.5 19.8-10.6 24.2-7 5.9-23 11.1-40.4 13-2.7.3-6.1.7-7.5 1-1.4.2-5 .7-8 1-3 .3-7.1.8-9 1-1.9.2-6.4.7-10 1-25.9 2.4-41.4 7.9-43.5 15.2l-.6 2.3h265.6l.2-9.5c.2-5.2 0-9.6-.5-9.6-1.5-.3-4.9-.7-10.7-1.3-3.3-.3-7.3-.8-9-1.1-1.6-.3-4.3-.7-6-1-6.5-1.1-8.3-1.5-16-3.7-24.1-6.7-30-18.4-29.9-58.8 0-14.2.3-17.2 2.3-25.6 3.5-14.3 15.9-39.8 28.1-57.9 4.2-6.2 22.3-30 23.9-31.5.3-.3 3.5-4 7-8.4l6.3-7.8-1.2-6.2c-2.7-14.2-6.3-18.6-29.3-36.4-40-30.9-59.5-51-75.3-78.2-14.7-25.2-20.8-44.6-26.8-85.3-2.4-15.7-2.4-66.1-.1-89.7.2-2.5.6-7.7.9-11.5.7-8.4 1.6-17.1 2.1-20.5.2-1.4.6-5.4 1-9 .7-6.9 1-9.1 2-15.5.3-2.2.8-6 1-8.4.4-3.9.8-6.9 2-15.1.2-1.4.7-5 1-8 .4-3 .9-6.2 1-7 .2-.8.6-4.8 1-8.8l.7-7.2h-61.6c-33.8 0-61.7.3-61.9.7z"/><path d="M380.7.7c-.3.5-.8 3-1.1 5.8-.3 2.7-.7 6.6-1 8.5-.3 1.9-.8 5.7-1.1 8.5-.3 2.7-.8 6.3-1 8-2.2 17.3-2.3 18.3-3 22.8-.4 3.3-1.7 14.9-3 27.7-.3 2.5-.7 7-1 10-1 9.7-2.4 28.7-3.1 41-.9 17.2-.3 55.3 1 64.9.3 2.3.8 6 1.1 8.3.6 4.3 3 17.4 4.5 23.8 4.4 19.6 18.4 46 33.5 63.7 6.3 7.3 20.6 21.4 26.5 26.1 2.5 2 5 4.1 5.5 4.7.6.6 7.8 6.2 16 12.5 20.6 15.7 32.2 27.4 36.8 37.1 3.4 7.2 6.3 15.9 7.3 21.6.2 1.5.6 3.7.9 4.9.2 1.1.7 4.7 1 8 .3 3.2.8 7.5 1 9.4.5 3.5.9 9.4 2 33 1.3 24.5 1.5 38.2 1.5 89.5.1 108.1-1.7 123-15.2 130.9-6.3 3.6-21.9 7.6-36.3 9.1-3.3.3-7.3.8-9 1-4.4.6-12 1.3-20 2-8.1.6-16.1 1.4-22.5 2.1-22.7 2.4-35.8 6.8-37.3 12.4-.5 2-.5 2 149.9 2H665l-1.2-2.6c-1.3-2.9-8.4-6.9-14.1-7.9-2-.4-3.8-.6-3.9-.4-.2.1-1.2-.2-2.3-.8-1.1-.6-5.1-1.4-9-1.8-3.8-.4-7.2-.8-7.5-1-.3-.2-4.5-.6-9.5-1-4.9-.3-10.8-.8-13-1-4.4-.5-13-1.3-21.5-2.1-3-.2-7.1-.7-9-1-1.9-.3-4.9-.7-6.5-.9-6.6-.9-17.5-3.5-22.6-5.4-16.3-6.2-19.1-14.7-20.6-63.1-1.3-43.4-.6-135.7 1.2-168.5.5-8.8 1.7-25.9 2-28.5.1-1.4.6-5 1-8 .7-6.5 3.9-20 5.8-25 3.3-8.9 8.1-16 17.2-25.5 1.4-1.5 22.7-18.6 30.9-24.8 22.3-16.9 42.9-38.3 54.5-56.8 2.3-3.7 6.3-11.3 9-17 7.4-15.8 11.6-31.1 14.7-52.9 2.6-19.1 2.6-69.8-.1-99-.2-1.9-.6-6.9-1-11-.3-4.1-.8-8.6-1-10-.2-1.4-.6-5.4-1-9-.3-3.6-2.2-18.9-4.1-34-1.9-15.1-3.7-29.8-4-32.5-.4-2.8-.8-5.7-.9-6.5C648.3.7 632.6.5 514.7.2c-73.5-.1-133.8.1-134 .5z"/></svg>